<svg width="500.00000000000006" height="500.00000000000006" xmlns="http://www.w3.org/2000/svg">

 <title/>
 <g>
  <title>background</title>
  <rect fill="none" id="canvas_background" height="402" width="582" y="-1" x="-1"/>
 </g>
 <g>
  <title>Layer 1</title>
  <g transform="matrix(3.9158897835423954,0,0,4.043374622984552,343.0687105475574,222.1202296776939) " id="svg_126">
   <title>Layer 1</title>
   <path d="m-52.866222,7.709127c-12.15,0 -22,9.85 -22,22s9.85,22 22,22s22,-9.85 22,-22s-9.85,-22 -22,-22zm14.447,19.895l-1.105,0.553l0.553,1.105c0.247,0.494 0.047,1.095 -0.447,1.342c-0.144,0.071 -0.297,0.105 -0.447,0.105c-0.367,0 -0.72,-0.202 -0.896,-0.553l-0.553,-1.105l-2.211,1.105l0.553,1.105c0.247,0.494 0.047,1.095 -0.447,1.342c-0.143,0.072 -0.296,0.106 -0.446,0.106c-0.367,0 -0.72,-0.202 -0.896,-0.553l-0.553,-1.105l-4.211,2.105l0.553,1.105c0.247,0.494 0.047,1.095 -0.447,1.342c-0.143,0.072 -0.296,0.106 -0.446,0.106c-0.367,0 -0.72,-0.202 -0.896,-0.553l-0.553,-1.105l-2.211,1.105l0.553,1.105c0.247,0.494 0.047,1.095 -0.447,1.342c-0.143,0.072 -0.296,0.106 -0.446,0.106c-0.367,0 -0.72,-0.202 -0.896,-0.553l-0.553,-1.105l-2.211,1.105l0.553,1.105c0.247,0.494 0.047,1.095 -0.447,1.342c-0.143,0.072 -0.296,0.106 -0.446,0.106c-0.367,0 -0.72,-0.202 -0.896,-0.553l-0.553,-1.105l-2.211,1.105l0.553,1.105c0.247,0.494 0.047,1.095 -0.447,1.342c-0.143,0.072 -0.296,0.106 -0.446,0.106c-0.367,0 -0.72,-0.202 -0.896,-0.553l-0.553,-1.105l-3.105,1.553c-0.141,0.07 -0.294,0.105 -0.447,0.105c-0.183,0 -0.365,-0.05 -0.526,-0.149c-0.294,-0.183 -0.474,-0.504 -0.474,-0.851c0,-3.093 1.163,-8.876 8.825,-13.363c-0.072,-1.708 0.21,-6.07 4.607,-8.489c0.307,-0.169 0.681,-0.165 0.983,0.01c0.303,0.176 0.492,0.497 0.499,0.847l0.035,1.886l0.364,-0.604c0.278,-0.461 0.873,-0.619 1.343,-0.357c0.021,0.012 2.151,1.181 4.141,1.181c1.173,0 2.783,-0.337 3.214,-3.257c0.072,-0.49 0.493,-0.854 0.989,-0.854c0.145,0 1.45,0.036 2.707,1.292c1.522,1.522 2.293,4.115 2.293,7.708c0,0.379 -0.214,0.725 -0.553,0.895z" id="svg_122" fill="#1d3354"/>
   <path d="m-42.116222,19.987127c-0.936,3.304 -3.446,3.833 -4.954,3.833c-1.645,0 -3.277,-0.586 -4.242,-1.01l-1.686,2.796c-0.229,0.382 -0.683,0.566 -1.116,0.45c-0.43,-0.115 -0.732,-0.502 -0.741,-0.947l-0.063,-3.455c-2.584,2.432 -2.11,5.926 -2.085,6.096c0.061,0.412 -0.14,0.821 -0.504,1.023c-5.968,3.307 -7.771,7.386 -8.225,10.25l2.418,-1.209l4,-2l4,-2c0,0 0,0 0,0l0,0l3.999,-2c0,0 0,0 0,0l0,0l5.999,-3l0,0c0,0 0,0 0.001,0l3.998,-2c0,0 0,0 0.001,0s0.001,0 0.001,0l1.438,-0.719c-0.095,-3.365 -0.963,-4.943 -1.699,-5.679c-0.186,-0.188 -0.371,-0.327 -0.54,-0.429z" id="svg_121" fill="#1d3354"/>
  </g>
  <path fill="#ffffff" id="svg_1" d="m414.21,317.72c1.12,20.53 -11,40.15 -30.35,47.57c-8.74,3.35 -17.5,3.18 -26.61,3.18l-124.34,0c-5.9,0 -11.81,0.05 -17.71,0a58.92,58.92 0 0 1 -53.79,-83a58,58 0 0 1 6.5,-11.18c0.84,-1.13 1.71,-2.22 2.63,-3.27c15.46,-18.02 40.46,-24.49 63.16,-17.47c3.6,1.11 7.14,-0.8 9.12,-3.72c15.77,-23.19 44.6,-35.68 72.31,-30.26a72,72 0 0 1 14.87,4.64c0.94,0.41 1.86,0.83 2.77,1.27c1.06,0.52 2.09,1 3.11,1.6a72.2,72.2 0 0 1 34,41a6.86,6.86 0 0 0 5.72,5.86c20.92,4.57 37.4,22 38.61,43.78z" class="cls-1"/>
  <path fill="#f8b62d" id="svg_2" d="m236.74,239.68a82.26,82.26 0 0 1 79.26,-30.48a76.12,76.12 0 0 1 10.36,2.59a82.65,82.65 0 0 0 -64.96,-68.09c-33.28,-6.74 -68.23,8.91 -85.76,37.86a83,83 0 0 0 -4.39,76.63a71.06,71.06 0 0 1 65.49,-18.51z" class="cls-2"/>
  <path fill="#231815" id="svg_3" d="m171.25,258.18a83,83 0 0 1 4.39,-76.63c17.54,-28.95 52.48,-44.6 85.76,-37.86a82.65,82.65 0 0 1 64.92,68.08a78.22,78.22 0 0 1 15.83,7.23a98,98 0 0 0 -63.86,-86.09c-37.69,-13.82 -81.9,-1.62 -107.27,29.43c-25,30.58 -29.25,74.26 -10,108.75a67.67,67.67 0 0 1 10.23,-12.91z" class="cls-3"/>
  <path fill="#231815" id="svg_4" d="m238.07,65.45l0,33.65c0,9.65 15,9.67 15,0l0,-33.65c0,-9.66 -15,-9.67 -15,0zm7.5,33.65l0,0z" class="cls-3"/>
  <path fill="#231815" id="svg_5" d="m189.61,112l-16.82,-29.1c-4.83,-8.36 -17.79,-0.81 -13,7.57l16.83,29.15c4.87,8.38 17.84,0.8 12.99,-7.62zm-6.48,3.79l-16.82,-29.11l16.82,29.11z" class="cls-3"/>
  <path fill="#231815" id="svg_6" d="m141.22,155.05l-29.15,-16.83c-8.37,-4.84 -15.94,8.12 -7.57,13l29.15,16.78c8.35,4.84 15.94,-8.12 7.57,-12.95zm-32.93,-10.35l29.15,16.83l-29.15,-16.83z" class="cls-3"/>
  <path fill="#231815" id="svg_7" d="m120.71,216.45l-33.65,0c-9.65,0 -9.67,15 0,15l33.65,0c9.65,0 9.67,-15 0,-15zm0,7.5l0,0z" class="cls-3"/>
  <path fill="#231815" id="svg_8" d="m133.65,279.91l-29.15,16.83c-8.36,4.83 -0.81,17.79 7.57,13l29.15,-16.83c8.36,-4.91 0.78,-17.84 -7.57,-13zm-25.36,23.3l29.15,-16.83l-29.15,16.83z" class="cls-3"/>
  <path fill="#231815" id="svg_9" d="m370.42,231.45l33.65,0c9.65,0 9.67,-15 0,-15l-33.65,0c-9.65,0 -9.67,15 0,15zm0,-7.5l0,0z" class="cls-3"/>
  <path fill="#231815" id="svg_10" d="m379.06,138.22l-29.15,16.83c-8.36,4.83 -0.81,17.79 7.57,13l29.15,-16.83c8.37,-4.87 0.81,-17.84 -7.57,-13zm-25.36,23.3l29.15,-16.83l-29.15,16.83z" class="cls-3"/>
  <path fill="#231815" id="svg_11" d="m318.35,82.9l-16.83,29.1c-4.84,8.38 8.12,15.94 13,7.57l16.78,-29.1c4.83,-8.38 -8.12,-15.94 -12.95,-7.57zm-10.35,32.93l16.83,-29.15l-16.83,29.15z" class="cls-3"/>
  <path fill="#231815" id="svg_12" d="m241.72,241c-1.65,-0.51 -3.31,-0.94 -5,-1.32q-1.82,2.31 -3.49,4.77l8.49,-3.45z" class="cls-3"/>
  <path fill="#231815" id="svg_13" d="m220.54,245.21a62.16,62.16 0 0 1 19.18,3a73.75,73.75 0 0 1 87.48,-28.16a82.08,82.08 0 0 0 -0.89,-8.28a76.12,76.12 0 0 0 -10.31,-2.57a82.26,82.26 0 0 0 -79.21,30.48c1.67,0.38 3.33,0.81 5,1.32l-8.47,3.45q1.67,-2.46 3.49,-4.77a71.06,71.06 0 0 0 -65.49,18.51a78.63,78.63 0 0 0 3.61,7a62.05,62.05 0 0 1 45.61,-19.98z" class="cls-3"/>
  <path fill="#231815" id="svg_14" d="m158.31,307.44a61.94,61.94 0 0 1 7.23,-29.12c-1,-1.44 -1.95,-2.9 -2.86,-4.4c-0.57,-0.94 -1.12,-1.9 -1.65,-2.86q-0.81,1.33 -1.57,2.71c-15.16,27.65 -9.62,63.37 13.66,84.79a70.91,70.91 0 0 0 47.42,18.61c4.86,0.05 7.27,-3.72 7.24,-7.5l-7.24,0a62.23,62.23 0 0 1 -62.23,-62.23z" class="cls-3"/>
  <path fill="#231815" id="svg_15" d="m377.25,260.93c0.54,1.41 1,2.84 1.51,4.28l-5.23,-5.21c1.26,0.27 2.5,0.6 3.73,1a83.67,83.67 0 0 0 -35.1,-42c0.1,1.65 0.17,3.31 0.18,5c0,1.3 -0.05,2.6 -0.12,3.89a73.86,73.86 0 0 1 29.32,39.37a51.75,51.75 0 0 1 -10.34,102.46l-7.2,0c0,3.78 2.36,7.56 7.24,7.5a59.9,59.9 0 0 0 58.76,-52.39c3.52,-28.75 -15.32,-56.02 -42.75,-63.9z" class="cls-3"/>
  <path fill="#231815" id="svg_16" d="m378.77,265.22c-0.46,-1.45 -1,-2.87 -1.51,-4.28c-1.23,-0.35 -2.47,-0.68 -3.73,-1l5.24,5.28z" class="cls-3"/>
  <path fill="#231815" id="svg_17" d="m327.21,220.07l1,0.38c3.17,-6 14.22,-4.79 14.15,3.5c0,-1.67 -0.08,-3.33 -0.18,-5a78.22,78.22 0 0 0 -15.84,-7.19a82.08,82.08 0 0 1 0.87,8.31z" class="cls-3"/>
  <path fill="#231815" id="svg_18" d="m328.18,220.45a73.45,73.45 0 0 1 13.39,7a7.44,7.44 0 0 0 0.77,-3.46c0.06,-8.33 -10.99,-9.5 -14.16,-3.54z" class="cls-3"/>
  <path fill="#231815" id="svg_19" d="m342.22,227.84c0.06,-1.29 0.11,-2.59 0.12,-3.89a7.44,7.44 0 0 1 -0.77,3.46l0.65,0.43z" class="cls-3"/>
  <path fill="#231815" id="svg_20" d="m165.54,278.33a62.36,62.36 0 0 1 9.32,-13.13a78.63,78.63 0 0 1 -3.61,-7a67.67,67.67 0 0 0 -10.25,12.87c0.54,1 1.08,1.91 1.65,2.86c0.94,1.5 1.91,2.96 2.89,4.4z" class="cls-3"/>
  <path fill="#231815" id="svg_21" d="m220.54,362.17c-24.5,-0.27 -46.36,-16.6 -52.84,-40.4a54.61,54.61 0 0 1 3,-36.61q-2.71,-3.29 -5.14,-6.84a62.23,62.23 0 0 0 55,91.35l7.24,0c-0.05,-3.67 -2.46,-7.44 -7.26,-7.5z" class="cls-3"/>
  <path fill="#231815" id="svg_22" d="m412.94,317.93a51.77,51.77 0 0 0 -41.41,-50.71a73.86,73.86 0 0 0 -29.32,-39.37q-0.21,4.42 -0.82,8.77a66.85,66.85 0 0 1 22.91,32.58a7.54,7.54 0 0 0 5.24,5.24c22.53,4.89 38.5,25.75 35.61,49c-2.74,22.09 -22,38.41 -44,38.7c-4.78,0.06 -7.2,3.78 -7.24,7.5l7.24,0a51.75,51.75 0 0 0 51.79,-51.71z" class="cls-3"/>
  <path fill="#231815" id="svg_23" d="m193.3,260c13.58,-7.83 29.54,-9.09 44.43,-4.49c3.34,1 6.63,-0.74 8.47,-3.45c14.65,-21.54 41.42,-33.14 67.15,-28.1a66.9,66.9 0 0 1 13.82,4.31c0.09,-1.42 0.15,-2.84 0.16,-4.27s-0.06,-2.6 -0.13,-3.88a73.75,73.75 0 0 0 -87.48,28.16a62.23,62.23 0 0 0 -64.87,17a77.26,77.26 0 0 0 4.29,6.55a54.17,54.17 0 0 1 14.16,-11.83z" class="cls-3"/>
  <path fill="#231815" id="svg_24" d="m328.18,220.45l-1,-0.38c0.07,1.29 0.12,2.58 0.13,3.88a7.48,7.48 0 0 1 0.87,-3.5z" class="cls-3"/>
  <path fill="#231815" id="svg_25" d="m174.86,265.2a62.36,62.36 0 0 0 -9.32,13.13q2.43,3.55 5.14,6.84a55.65,55.65 0 0 1 8.47,-13.42a77.26,77.26 0 0 1 -4.29,-6.55z" class="cls-3"/>
  <path fill="#231815" id="svg_26" d="m329.75,229.41q1.46,0.71 2.88,1.48c3.34,0.91 7.3,-0.25 8.93,-3.48a73.45,73.45 0 0 0 -13.39,-7a7.48,7.48 0 0 0 -0.85,3.5a6.94,6.94 0 0 0 2.43,5.5z" class="cls-3"/>
  <path fill="#231815" id="svg_27" d="m327.33,224c0,1.43 -0.07,2.85 -0.16,4.27q1.3,0.57 2.57,1.18a6.94,6.94 0 0 1 -2.41,-5.45z" class="cls-3"/>
  <path fill="#231815" id="svg_28" d="m332.63,230.89a67.18,67.18 0 0 1 8.76,5.72q0.61,-4.34 0.82,-8.77l-0.65,-0.43c-1.63,3.24 -5.56,4.39 -8.93,3.48z" class="cls-3"/>
  <path fill="#231815" id="svg_29" d="m246.71,369.67l-7.24,0c0,3.75 2.41,7.5 7.24,7.5l89.29,0c4.83,0 7.24,-3.75 7.25,-7.5l-96.54,0z" class="cls-3"/>
  <path fill="#231815" id="svg_30" d="m336,362.17l-89.29,0c-4.83,0 -7.24,3.75 -7.24,7.5l103.75,0c0,-3.75 -2.41,-7.5 -7.22,-7.5z" class="cls-3"/>
  <path fill="#231815" id="svg_31" d="m370.73,329.24c4.64,-12.68 -0.36,-27.14 -11.45,-34.65c-12.35,-8.37 -29.43,-5.69 -39,5.53a7.46,7.46 0 0 0 -1.34,7.84l6.64,-2.54a22.14,22.14 0 1 1 17.3,36l-111.43,0l19.63,-7.5l-19.63,0c-9.65,0 -9.67,15 0,15l105.7,0c2.36,0 4.74,0.1 7.09,0a30,30 0 0 0 26.49,-19.68z" class="cls-3"/>
  <path fill="#231815" id="svg_32" d="m342.84,341.38a22.14,22.14 0 1 0 -17.3,-36l-6.65,2.62c1.85,4.65 7.82,7.59 11.95,2.76c6.16,-7.19 17.15,-8.58 23.48,-0.62a14.8,14.8 0 0 1 -3.71,21.55c-5.52,3.49 -14,2.22 -20.26,2.22l-79.28,0l-19.62,7.5l111.39,-0.03z" class="cls-3"/>
  <path fill="#231815" id="svg_33" d="m334.3,393.77c-6.71,-3.72 -13.88,-3.31 -21.21,-3.31l-48.64,0c-9.65,0 -9.67,15 0,15l10.83,0l-10.83,-7.46l57.2,0a18.29,18.29 0 1 1 -14.3,29.71l-5.87,-4.06a7.53,7.53 0 0 0 0.56,9.37a26,26 0 0 0 40.1,-1.16c9.29,-12.21 5.64,-30.61 -7.84,-38.09z" class="cls-3"/>
  <path fill="#231815" id="svg_34" d="m321.66,434.55a18.29,18.29 0 1 0 0,-36.59l-57.2,0l10.83,7.5l36.29,0c5.72,0 13.28,-1.27 17.72,3.16a10.85,10.85 0 0 1 0,15.27c-5.06,5.06 -12.28,3.5 -16.63,-1.52c-3.67,-4.24 -8.76,-2.43 -11.17,1.24l5.87,4.06a18.26,18.26 0 0 0 14.29,6.88z" class="cls-3"/>
  <g transform="matrix(14.355684753583375,0,0,14.355684753583375,0,0) " id="svg_110"/>
  <g transform="matrix(14.355684753583375,0,0,14.355684753583375,0,0) " id="svg_108"/>
  <g transform="matrix(14.355684753583375,0,0,14.355684753583375,0,0) " id="svg_107"/>
  <g transform="matrix(14.355684753583375,0,0,14.355684753583375,0,0) " id="svg_106"/>
  <g transform="matrix(14.355684753583375,0,0,14.355684753583375,0,0) " id="svg_105"/>
  <g transform="matrix(14.355684753583375,0,0,14.355684753583375,0,0) " id="svg_104"/>
  <g transform="matrix(14.355684753583375,0,0,14.355684753583375,0,0) " id="svg_103"/>
  <g transform="matrix(14.355684753583375,0,0,14.355684753583375,0,0) " id="svg_102"/>
  <g transform="matrix(14.355684753583375,0,0,14.355684753583375,0,0) " id="svg_101"/>
  <g transform="matrix(14.355684753583375,0,0,14.355684753583375,0,0) " id="svg_100"/>
  <g transform="matrix(14.355684753583375,0,0,14.355684753583375,0,0) " id="svg_99"/>
  <g transform="matrix(14.355684753583375,0,0,14.355684753583375,0,0) " id="svg_98"/>
  <g transform="matrix(14.355684753583375,0,0,14.355684753583375,0,0) " id="svg_97"/>
  <g transform="matrix(14.355684753583375,0,0,14.355684753583375,0,0) " id="svg_96"/>
  <g transform="matrix(14.355684753583375,0,0,14.355684753583375,0,0) " id="svg_95"/>
  <g transform="matrix(14.355684753583375,0,0,14.355684753583375,0,0) " id="svg_94"/>
  <g transform="matrix(14.355684753583375,0,0,14.355684753583375,0,0) " id="svg_93"/>
  <g transform="matrix(14.355684753583375,0,0,14.355684753583375,0,0) " id="svg_92"/>
  <g transform="matrix(14.355684753583375,0,0,14.355684753583375,0,0) " id="svg_91"/>
  <g transform="matrix(14.355684753583375,0,0,14.355684753583375,0,0) " id="svg_90"/>
  <g transform="matrix(14.355684753583375,0,0,14.355684753583375,0,0) " id="svg_89"/>
  <g transform="matrix(14.355684753583375,0,0,14.355684753583375,0,0) " id="svg_88"/>
  <g transform="matrix(14.355684753583375,0,0,14.355684753583375,0,0) " id="svg_87"/>
  <g transform="matrix(14.355684753583375,0,0,14.355684753583375,0,0) " id="svg_86"/>
  <g transform="matrix(14.355684753583375,0,0,14.355684753583375,0,0) " id="svg_85"/>
  <g transform="matrix(14.355684753583375,0,0,14.355684753583375,0,0) " id="svg_84"/>
  <g transform="matrix(14.355684753583375,0,0,14.355684753583375,0,0) " id="svg_83"/>
  <g transform="matrix(14.355684753583375,0,0,14.355684753583375,0,0) " id="svg_82"/>
  <g transform="matrix(14.355684753583375,0,0,14.355684753583375,0,0) " id="svg_81"/>
  <g transform="matrix(14.355684753583375,0,0,14.355684753583375,0,0) " id="svg_80"/>
  <g transform="matrix(14.355684753583375,0,0,14.355684753583375,0,0) " id="svg_79"/>
  <g transform="matrix(14.355684753583375,0,0,14.355684753583375,0,0) " id="svg_78"/>
  <g transform="matrix(14.355684753583375,0,0,14.355684753583375,0,0) " id="svg_77"/>
  <g transform="matrix(14.355684753583375,0,0,14.355684753583375,0,0) " id="svg_76"/>
  <g transform="matrix(14.355684753583375,0,0,14.355684753583375,0,0) " id="svg_75"/>
  <g transform="matrix(14.355684753583375,0,0,14.355684753583375,0,0) " id="svg_74"/>
  <g id="svg_115"/>
  <g transform="matrix(14.355684753583375,0,0,14.355684753583375,0,0) " id="svg_125">
   <title>background</title>
   <rect x="-1" y="-1" width="582" height="402" id="svg_123" fill="none"/>
  </g>
  <g id="svg_127"/>
 </g>
</svg>