<svg width="48" height="48" xmlns="http://www.w3.org/2000/svg">

 <g>
  <title>background</title>
  <rect fill="none" id="canvas_background" height="402" width="582" y="-1" x="-1"/>
 </g>
 <g>
  <title>Layer 1</title>
  <path fill="#1d3354" id="svg_2" d="m24,2c-12.15,0 -22,9.85 -22,22s9.85,22 22,22s22,-9.85 22,-22s-9.85,-22 -22,-22zm14.447,19.895l-1.105,0.553l0.553,1.105c0.247,0.494 0.047,1.095 -0.447,1.342c-0.144,0.071 -0.297,0.105 -0.447,0.105c-0.367,0 -0.72,-0.202 -0.896,-0.553l-0.553,-1.105l-2.211,1.105l0.553,1.105c0.247,0.494 0.047,1.095 -0.447,1.342c-0.143,0.072 -0.296,0.106 -0.446,0.106c-0.367,0 -0.72,-0.202 -0.896,-0.553l-0.553,-1.105l-4.211,2.105l0.553,1.105c0.247,0.494 0.047,1.095 -0.447,1.342c-0.143,0.072 -0.296,0.106 -0.446,0.106c-0.367,0 -0.72,-0.202 -0.896,-0.553l-0.553,-1.105l-2.211,1.105l0.553,1.105c0.247,0.494 0.047,1.095 -0.447,1.342c-0.143,0.072 -0.296,0.106 -0.446,0.106c-0.367,0 -0.72,-0.202 -0.896,-0.553l-0.553,-1.105l-2.211,1.105l0.553,1.105c0.247,0.494 0.047,1.095 -0.447,1.342c-0.143,0.072 -0.296,0.106 -0.446,0.106c-0.367,0 -0.72,-0.202 -0.896,-0.553l-0.553,-1.105l-2.211,1.105l0.553,1.105c0.247,0.494 0.047,1.095 -0.447,1.342c-0.143,0.072 -0.296,0.106 -0.446,0.106c-0.367,0 -0.72,-0.202 -0.896,-0.553l-0.553,-1.105l-3.105,1.553c-0.141,0.07 -0.294,0.105 -0.447,0.105c-0.183,0 -0.365,-0.05 -0.526,-0.149c-0.294,-0.183 -0.474,-0.504 -0.474,-0.851c0,-3.093 1.163,-8.876 8.825,-13.363c-0.072,-1.708 0.21,-6.07 4.607,-8.489c0.307,-0.169 0.681,-0.165 0.983,0.01c0.303,0.176 0.492,0.497 0.499,0.847l0.035,1.886l0.364,-0.604c0.278,-0.461 0.873,-0.619 1.343,-0.357c0.021,0.012 2.151,1.181 4.141,1.181c1.173,0 2.783,-0.337 3.214,-3.257c0.072,-0.49 0.493,-0.854 0.989,-0.854c0.145,0 1.45,0.036 2.707,1.292c1.522,1.522 2.293,4.115 2.293,7.708c0,0.379 -0.214,0.725 -0.553,0.895z"/>
  <path fill="#1d3354" id="svg_3" d="m34.75,14.278c-0.936,3.304 -3.446,3.833 -4.954,3.833c-1.645,0 -3.277,-0.586 -4.242,-1.01l-1.686,2.796c-0.229,0.382 -0.683,0.566 -1.116,0.45c-0.43,-0.115 -0.732,-0.502 -0.741,-0.947l-0.063,-3.455c-2.584,2.432 -2.11,5.926 -2.085,6.096c0.061,0.412 -0.14,0.821 -0.504,1.023c-5.968,3.307 -7.771,7.386 -8.225,10.25l2.418,-1.209l4,-2l4,-2c0,0 0,0 0,0l0,0l3.999,-2c0,0 0,0 0,0l0,0l5.999,-3l0,0c0,0 0,0 0.001,0l3.998,-2c0,0 0,0 0.001,0s0.001,0 0.001,0l1.438,-0.719c-0.095,-3.365 -0.963,-4.943 -1.699,-5.679c-0.186,-0.188 -0.371,-0.327 -0.54,-0.429z"/>
 </g>
</svg>